<svg version="1.1" id="Layer_1" xmlns="http://www.w3.org/2000/svg" xmlns:xlink="http://www.w3.org/1999/xlink" x="0px" y="0px"
	 width="100%" viewBox="0 0 295 201" enable-background="new 0 0 295 201" xml:space="preserve">
<path fill="#0A0A0A" opacity="1.000000" stroke="none" 
	d="
M245.222244,124.496658 
	C249.090820,123.982948 248.818771,125.742241 248.166611,128.275528 
	C242.928909,148.621399 232.079224,165.370987 215.808151,178.545425 
	C163.927719,220.552307 84.295021,194.529816 67.239227,130.053085 
	C65.841873,124.770622 66.533913,123.696678 70.562271,124.468040 
	C72.609039,124.859962 72.567085,126.369293 72.980804,127.746506 
	C83.447906,162.590073 106.426590,184.153748 142.074783,191.294907 
	C185.734787,200.041000 230.304016,171.829239 241.830460,128.864044 
	C242.306885,127.088165 241.842896,124.575150 245.222244,124.496658 
z"/>
<path fill="#0A0A0A" opacity="1.000000" stroke="none" 
	d="
M84.785950,56.886223 
	C83.071533,59.765907 81.397972,62.267471 80.091782,64.948044 
	C79.247429,66.680840 78.240982,67.326889 76.307983,67.438889 
	C72.784378,67.643036 72.421562,66.744766 73.919792,63.588768 
	C90.216057,29.260908 130.517670,7.518518 168.379333,12.685601 
	C200.677948,17.093477 224.549973,33.691299 240.171967,62.196835 
	C240.949310,63.615288 243.655075,65.782936 241.275269,67.047981 
	C238.935440,68.291786 236.306015,67.667953 234.500824,64.267052 
	C227.261765,50.629025 217.024918,39.577015 203.804245,31.498032 
	C164.406235,7.422395 115.989922,16.426395 87.699516,53.005199 
	C86.783249,54.189915 85.887764,55.390717 84.785950,56.886223 
z"/>
<path fill="#111111" opacity="1.000000" stroke="none" 
	d="
M276.249329,115.916519 
	C272.431885,111.271416 268.628204,107.043839 265.459015,102.384644 
	C263.063019,98.862106 259.856781,99.475571 256.610504,99.427452 
	C255.668564,99.413483 254.994110,99.849442 255.017273,100.855751 
	C255.128036,105.668686 254.503098,110.514977 255.482712,115.285919 
	C255.868088,117.162750 257.674164,117.574623 259.432495,118.459190 
	C255.055206,118.459190 250.920929,118.459190 246.513046,118.459190 
	C249.349548,117.111526 249.437454,114.502480 249.451889,111.959282 
	C249.513245,101.144547 249.473953,90.329239 249.539032,79.514549 
	C249.555557,76.769226 248.629227,74.729988 245.584351,73.498482 
	C251.685760,73.498482 257.351196,73.319160 262.999451,73.553253 
	C267.818878,73.753006 272.349976,75.081818 274.483643,80.039368 
	C276.684113,85.152214 275.663635,90.273499 271.832489,93.854004 
	C267.864532,97.562393 269.145996,99.869919 272.116394,102.989227 
	C277.497711,108.640266 281.259796,116.034233 289.542358,118.497681 
	C284.979889,118.432274 280.317413,119.541054 276.249329,115.916519 
z"/>
<path fill="#0F0F0F" opacity="1.000000" stroke="none" 
	d="
M200.420990,117.784546 
	C189.423065,112.394058 184.118332,102.207047 186.488342,91.596725 
	C189.105362,79.880539 198.103073,72.780800 210.548538,72.611809 
	C222.679123,72.447090 231.665207,78.583138 234.438919,88.925026 
	C239.410141,107.460434 222.820221,123.220673 203.177307,118.616425 
	C202.370682,118.427353 201.583725,118.154449 200.420990,117.784546 
z"/>
<path fill="#111111" opacity="1.000000" stroke="none" 
	d="
M148.737335,82.145790 
	C152.476135,91.532188 156.057739,100.557610 160.048691,110.614586 
	C165.129364,99.150345 169.327057,88.617661 173.087128,77.901825 
	C173.731995,76.064041 173.528015,74.661583 171.283096,73.521187 
	C174.916245,73.521187 178.076355,73.521187 181.879410,73.521187 
	C178.581177,75.412643 177.205719,78.248863 175.914825,81.253052 
	C171.069885,92.528267 166.089294,103.745407 161.115768,114.964912 
	C160.458969,116.446548 160.118729,118.164177 158.591095,119.172737 
	C156.762634,118.424026 156.707001,116.553589 156.098099,115.121460 
	C151.101807,103.370239 146.129929,91.607773 141.288345,79.792297 
	C140.162537,77.044785 138.898697,74.696960 135.778015,73.659637 
	C139.914886,73.659637 144.051743,73.659637 148.139633,73.659637 
	C144.898621,76.350128 147.845505,79.016235 148.737335,82.145790 
z"/>
<path fill="#0E0E0E" opacity="1.000000" stroke="none" 
	d="
M138.099091,118.485031 
	C132.130768,119.460579 127.989952,118.027229 127.464859,111.423737 
	C127.439987,111.110886 127.196030,110.819107 127.073494,110.509827 
	C123.146011,100.596260 123.146286,100.594948 112.450142,101.410431 
	C111.795662,101.460320 111.069946,101.389473 110.503830,101.649803 
	C107.407852,103.073486 104.921700,115.752609 107.305267,118.530220 
	C103.655235,118.530220 100.125275,118.530220 95.803596,118.530220 
	C100.327599,116.821404 101.683838,113.374100 103.008415,109.795815 
	C106.984436,99.054871 111.039513,88.342552 115.169861,77.660088 
	C115.795334,76.042381 115.985458,74.108040 118.090843,72.576042 
	C121.776085,81.804047 125.262764,90.903679 129.046890,99.877899 
	C131.477112,105.641266 132.795334,111.991127 137.673126,116.866142 
	C138.342651,117.366722 138.464508,117.785706 138.099091,118.485031 
z"/>
<path fill="#161616" opacity="1.000000" stroke="none" 
	d="
M36.213791,118.134079 
	C33.648968,118.528862 31.253996,118.533051 28.409727,118.537170 
	C27.838196,118.268242 27.715961,117.999382 27.739862,117.312325 
	C29.200531,114.613869 28.896276,112.083893 28.910788,109.635727 
	C28.968506,99.898079 28.953396,90.159958 28.944506,80.422028 
	C28.942863,78.623611 29.162573,76.757797 27.497650,75.023926 
	C26.730602,74.557922 26.553617,74.189690 26.953018,73.534317 
	C33.745564,73.412560 40.295883,73.997887 46.710758,73.313560 
	C51.164207,72.838478 51.462185,74.217392 50.514572,77.639473 
	C50.297913,78.421898 50.228935,79.245216 50.060337,80.235649 
	C48.133610,76.935181 38.221481,74.268883 35.510288,76.213486 
	C35.073097,76.527069 34.764027,77.310577 34.754456,77.882866 
	C34.679264,82.377983 34.705067,86.874672 34.669052,91.370636 
	C34.657032,92.870926 35.410389,93.433739 36.823444,93.369843 
	C40.757179,93.191948 44.771072,93.880463 49.183125,92.094467 
	C49.078030,94.134071 48.983246,95.973557 48.857018,98.423370 
	C47.589977,97.631561 46.961651,97.134247 46.253273,96.813965 
	C42.782532,95.244720 38.760124,94.960487 35.584278,96.114365 
	C33.324455,96.935432 34.768238,100.938217 34.720600,103.495804 
	C34.640373,107.803505 34.449177,112.145782 35.700127,116.691971 
	C36.146687,117.227356 36.265163,117.485413 36.213791,118.134079 
z"/>
<path fill="#181818" opacity="1.000000" stroke="none" 
	d="
M63.486671,118.105743 
	C65.274963,116.241661 65.239655,114.155846 65.253456,112.206711 
	C65.331070,101.242722 65.319214,90.278069 65.326088,79.313637 
	C65.327728,76.702667 64.852211,74.348595 61.870537,73.439178 
	C65.929512,73.439178 69.988480,73.439178 74.575165,73.439178 
	C71.405350,75.136681 71.059723,77.719490 71.098770,80.650414 
	C71.213852,89.288773 70.960556,97.935440 71.236412,106.566551 
	C71.344032,109.933914 70.166580,114.357048 74.989883,115.823669 
	C81.354668,117.758987 86.572426,115.898651 89.462448,110.988815 
	C89.776703,118.617012 89.326088,119.042900 81.935875,118.842331 
	C76.294197,118.689224 70.648941,118.667786 64.611176,118.591843 
	C63.954678,118.563362 63.692280,118.530815 63.486671,118.105743 
z"/>
<path fill="#5C5C5C" opacity="1.000000" stroke="none" 
	d="
M166.963959,129.241714 
	C166.617920,131.926193 168.436401,131.018356 169.486221,131.447311 
	C171.862045,132.418060 172.991470,133.899612 170.263412,136.541595 
	C170.267593,134.300171 169.603394,132.665359 167.816345,131.755264 
	C166.410110,131.039093 164.352890,130.596527 165.439896,128.356644 
	C166.662933,125.836464 168.693665,126.440529 171.110855,127.296219 
	C169.780151,128.774841 167.823486,127.230141 166.963959,129.241714 
z"/>
<path fill="#454545" opacity="1.000000" stroke="none" 
	d="
M163.024292,131.023560 
	C162.510834,135.752274 161.793823,136.526550 157.485046,136.587021 
	C163.529938,135.192398 160.846390,130.481812 162.152069,126.808388 
	C163.400833,128.197388 162.882431,129.495758 163.024292,131.023560 
z"/>
<path fill="#828282" opacity="1.000000" stroke="none" 
	d="
M140.969360,131.113739 
	C141.034515,129.598877 140.593506,128.224152 141.811386,126.728882 
	C143.892105,130.005478 142.360687,133.197098 143.046387,136.614426 
	C140.344055,135.915176 141.193085,134.145126 140.896805,132.535919 
	C140.677719,131.832764 141.555328,131.769974 140.969360,131.113739 
z"/>
<path fill="#7A7A7A" opacity="1.000000" stroke="none" 
	d="
M137.000946,131.850647 
	C136.526688,133.535522 137.701859,135.442017 135.471207,136.894211 
	C134.505249,134.397430 135.042694,131.982132 134.974243,129.671753 
	C134.949371,128.831696 134.476349,127.267792 135.857590,127.329216 
	C137.541428,127.404099 136.635712,129.136505 137.016190,130.511566 
	C137.267059,131.201141 136.474365,131.239853 137.000946,131.850647 
z"/>
<path fill="#454545" opacity="1.000000" stroke="none" 
	d="
M157.004761,131.982697 
	C157.053818,133.516449 157.102127,134.622696 157.150436,135.728928 
	C155.340317,133.064514 155.769577,130.271790 157.004028,127.447662 
	C157.004028,128.816833 157.004028,130.186005 157.004761,131.982697 
z"/>
<path fill="#0A0A0A" opacity="1.000000" stroke="none" 
	d="
M174.348145,136.185776 
	C174.070511,133.085007 174.070511,130.209930 174.070511,126.276184 
	C175.698410,129.831818 175.276077,132.521164 175.124649,135.579514 
	C175.001236,136.117126 174.813507,136.264313 174.348145,136.185776 
z"/>
<path fill="#2D2D2D" opacity="1.000000" stroke="none" 
	d="
M153.212280,131.180756 
	C153.149078,132.644836 153.420013,133.788071 151.950806,135.440109 
	C151.950806,133.053528 151.918488,131.341751 151.963943,129.632034 
	C151.988007,128.726761 152.726303,129.197510 152.857635,129.405792 
	C153.096725,129.784958 153.093369,130.316986 153.212280,131.180756 
z"/>
<path fill="#828282" opacity="1.000000" stroke="none" 
	d="
M36.320290,118.716385 
	C36.050812,118.265350 36.057682,118.006027 36.046379,117.358002 
	C37.485508,116.921715 38.857548,117.087334 39.836586,118.396515 
	C38.808708,119.383705 37.682137,119.002403 36.320290,118.716385 
z"/>
<path fill="#5C5C5C" opacity="1.000000" stroke="none" 
	d="
M174.137512,136.337738 
	C174.256927,135.961838 174.443329,135.963608 174.909363,135.967651 
	C176.457748,135.969955 177.726517,135.969955 178.995285,135.969955 
	C177.418839,137.085815 175.837585,137.284973 174.137512,136.337738 
z"/>
<path fill="#111111" opacity="1.000000" stroke="none" 
	d="
M145.964417,128.978363 
	C146.283386,130.799667 146.015610,132.740433 145.670181,135.243958 
	C144.648148,132.856659 144.801147,130.988083 145.964417,128.978363 
z"/>
<path fill="#181818" opacity="1.000000" stroke="none" 
	d="
M137.473984,132.049744 
	C136.799210,131.844177 135.908920,131.890335 136.837921,131.016205 
	C138.099686,130.942780 139.115021,130.977478 140.502899,130.929138 
	C141.517075,130.995895 141.977219,131.237228 141.163300,132.065399 
	C139.870132,132.100143 138.860428,132.047897 137.473984,132.049744 
z"/>
<path fill="#7A7A7A" opacity="1.000000" stroke="none" 
	d="
M138.149139,118.845673 
	C137.902863,118.328918 137.985367,117.958939 138.024185,117.306641 
	C139.314590,117.019432 140.445938,117.425316 141.576141,118.848976 
	C140.297089,118.908195 139.387497,118.950317 138.149139,118.845673 
z"/>
<path fill="#828282" opacity="1.000000" stroke="none" 
	d="
M27.555912,116.942429 
	C27.890827,117.168297 27.895657,117.442467 27.930458,118.126862 
	C27.093287,119.125610 25.771124,119.495232 25.400253,118.601433 
	C24.919989,117.443985 26.509413,117.459274 27.555912,116.942429 
z"/>
<path fill="#8C8C8C" opacity="1.000000" stroke="none" 
	d="
M26.912636,73.211548 
	C27.418097,73.693001 27.412594,74.013947 27.191984,74.576141 
	C25.995092,74.906532 24.558683,75.034172 24.521574,73.532974 
	C24.500866,72.695259 25.828512,73.102028 26.912636,73.211548 
z"/>
<path fill="#EEEEEE" opacity="1.000000" stroke="none" 
	d="
M146.139587,128.809509 
	C146.052399,127.741158 146.301254,126.947304 147.325546,127.473961 
	C148.005051,127.823349 147.746338,128.499695 146.806000,128.858673 
	C146.551178,128.858902 146.189224,128.996674 146.139587,128.809509 
z"/>
<path fill="#454545" opacity="1.000000" stroke="none" 
	d="
M149.013214,135.886139 
	C149.900436,135.997147 151.072021,135.783447 150.517944,136.552551 
	C149.828201,137.509979 148.226730,137.501740 147.543304,136.529617 
	C146.974930,135.721176 148.098724,135.919220 149.013214,135.886139 
z"/>
<path fill="#828282" opacity="1.000000" stroke="none" 
	d="
M63.216560,117.664894 
	C63.712948,117.816666 63.882439,117.920105 64.134506,118.309731 
	C63.384842,119.103577 62.297253,119.405441 61.749775,118.625206 
	C61.305157,117.991577 62.382584,117.854187 63.216560,117.664894 
z"/>
<path fill="#FAFAFA" opacity="1.000000" stroke="none"
	d="
M269.915619,88.729996
	C269.379425,92.315430 268.684845,95.440849 265.352997,96.900429
	C259.230865,99.582344 254.972855,96.833557 254.973175,90.282669
	C254.973343,86.466354 255.153900,82.639313 254.921936,78.837303
	C254.752396,76.058517 256.097961,75.458519 258.420349,75.357819
	C265.713440,75.041595 269.614563,79.394424 269.915619,88.729996
z"/>
<path fill="#FCFCFC" opacity="1.000000" stroke="none" 
	d="
M206.913208,116.513092 
	C193.143723,111.542938 187.535431,91.622581 196.534500,80.640961 
	C201.145370,75.014290 207.393204,73.721817 214.103714,75.143951 
	C221.488525,76.708984 225.642838,81.993645 227.673294,88.958580 
	C229.189331,94.158928 229.079971,99.516533 227.729752,104.728127 
	C225.343353,113.939392 218.364090,117.919632 206.913208,116.513092 
z"/>
<path fill="#F4F4F4" opacity="1.000000" stroke="none" 
	d="
M114.975639,86.048546 
	C115.455177,84.772064 115.850731,83.874184 116.485847,82.432510 
	C118.868240,88.039238 120.853485,93.191391 122.339325,98.847153 
	C118.372742,98.847153 114.772194,98.847153 110.707237,98.847153 
	C112.158630,94.539200 113.525146,90.483177 114.975639,86.048546 
z"/>
</svg>